<?xml version="1.0" encoding="UTF-8" standalone="no"?>
<!-- Created with Inkscape (http://www.inkscape.org/) -->

<svg
   xmlns:dc="http://purl.org/dc/elements/1.1/"
   xmlns:cc="http://creativecommons.org/ns#"
   xmlns:rdf="http://www.w3.org/1999/02/22-rdf-syntax-ns#"
   xmlns:svg="http://www.w3.org/2000/svg"
   xmlns="http://www.w3.org/2000/svg"
   xmlns:sodipodi="http://sodipodi.sourceforge.net/DTD/sodipodi-0.dtd"
   xmlns:inkscape="http://www.inkscape.org/namespaces/inkscape"
   width="210mm"
   height="297mm"
   viewBox="0 0 210 297"
   version="1.1"
   id="svg8"
   inkscape:version="0.92.3 (2405546, 2018-03-11)"
   sodipodi:docname="logo.svg">
  <defs
     id="defs2">
    <clipPath
       id="clipPath3748"
       clipPathUnits="userSpaceOnUse">
      <path
         inkscape:connector-curvature="0"
         id="path3746"
         d="M 0,595.28 H 841.89 V 0 H 0 Z" />
    </clipPath>
    <clipPath
       id="clipPath3768"
       clipPathUnits="userSpaceOnUse">
      <path
         inkscape:connector-curvature="0"
         id="path3766"
         d="m 718.393,144.469 c -0.261,-0.16 -0.526,-0.323 -0.803,-0.492 v 0 l -0.226,-2.95 c -0.361,-3.242 2.244,-4.052 5.485,-4.412 v 0 c 3.242,-0.366 5.885,-0.148 6.25,3.093 v 0 l 2.083,14.053 c -3.82,-3.312 -8.117,-6.436 -12.789,-9.292" />
    </clipPath>
    <linearGradient
       id="linearGradient3784"
       spreadMethod="pad"
       gradientTransform="matrix(11.979922,-1.6836684,-1.6836684,-11.979922,717.93945,146.45801)"
       gradientUnits="userSpaceOnUse"
       y2="0"
       x2="1"
       y1="0"
       x1="0">
      <stop
         id="stop3774"
         offset="0"
         style="stop-opacity:1;stop-color:#f9a72b" />
      <stop
         id="stop3776"
         offset="0.31481586"
         style="stop-opacity:1;stop-color:#f8a62b" />
      <stop
         id="stop3778"
         offset="0.5"
         style="stop-opacity:1;stop-color:#f8a62b" />
      <stop
         id="stop3780"
         offset="0.70316016"
         style="stop-opacity:1;stop-color:#f8a62b" />
      <stop
         id="stop3782"
         offset="1"
         style="stop-opacity:1;stop-color:#f9a72b" />
    </linearGradient>
    <clipPath
       id="clipPath3794"
       clipPathUnits="userSpaceOnUse">
      <path
         inkscape:connector-curvature="0"
         id="path3792"
         d="m 727.487,286.494 c -0.167,-1.493 0.912,-2.841 2.401,-3.005 v 0 l 0.026,-0.004 -0.365,-4.12 0.273,-0.088 c 4.61,-1.479 9.389,-2.893 14.608,-4.325 v 0 c 1.038,-0.282 2.074,-0.563 3.121,-0.835 v 0 l 0.985,7.281 0.026,-0.005 c 1.491,-0.167 2.838,0.906 3.006,2.401 v 0 c 0.164,1.458 -0.856,2.78 -2.296,2.995 v 0 l -18.883,2.116 c -0.069,0.006 -0.137,0.008 -0.205,0.008 v 0 c -1.363,0 -2.542,-1.029 -2.697,-2.419" />
    </clipPath>
    <linearGradient
       id="linearGradient3810"
       spreadMethod="pad"
       gradientTransform="matrix(23.988857,-3.3714142,-3.3714142,-23.988857,727.06055,283.45361)"
       gradientUnits="userSpaceOnUse"
       y2="0"
       x2="1"
       y1="0"
       x1="0">
      <stop
         id="stop3800"
         offset="0"
         style="stop-opacity:1;stop-color:#f9a72b" />
      <stop
         id="stop3802"
         offset="0.31481586"
         style="stop-opacity:1;stop-color:#f8a62b" />
      <stop
         id="stop3804"
         offset="0.5"
         style="stop-opacity:1;stop-color:#f8a62b" />
      <stop
         id="stop3806"
         offset="0.70316016"
         style="stop-opacity:1;stop-color:#f8a62b" />
      <stop
         id="stop3808"
         offset="1"
         style="stop-opacity:1;stop-color:#f9a72b" />
    </linearGradient>
    <clipPath
       id="clipPath3820"
       clipPathUnits="userSpaceOnUse">
      <path
         inkscape:connector-curvature="0"
         id="path3818"
         d="m 663.645,288.905 -18.883,-2.116 c -1.436,-0.215 -2.456,-1.537 -2.293,-2.995 v 0 c 0.169,-1.495 1.513,-2.568 3.006,-2.401 v 0 l 0.022,0.005 0.991,-7.295 c 1.079,0.283 2.148,0.572 3.22,0.861 v 0 c 5.195,1.429 9.943,2.832 14.512,4.288 v 0 l 0.235,0.075 0.033,0.013 -0.364,4.145 0.025,0.004 c 1.49,0.164 2.566,1.512 2.398,3.005 v 0 c -0.152,1.39 -1.331,2.419 -2.698,2.419 v 0 c -0.067,0 -0.136,-0.002 -0.204,-0.008" />
    </clipPath>
    <linearGradient
       id="linearGradient3836"
       spreadMethod="pad"
       gradientTransform="matrix(23.985956,3.3710065,3.3710065,-23.985956,642.99023,280.07568)"
       gradientUnits="userSpaceOnUse"
       y2="0"
       x2="1"
       y1="0"
       x1="0">
      <stop
         id="stop3826"
         offset="0"
         style="stop-opacity:1;stop-color:#f9a72b" />
      <stop
         id="stop3828"
         offset="0.31481586"
         style="stop-opacity:1;stop-color:#f8a62b" />
      <stop
         id="stop3830"
         offset="0.5"
         style="stop-opacity:1;stop-color:#f8a62b" />
      <stop
         id="stop3832"
         offset="0.70316016"
         style="stop-opacity:1;stop-color:#f8a62b" />
      <stop
         id="stop3834"
         offset="1"
         style="stop-opacity:1;stop-color:#f9a72b" />
    </linearGradient>
    <clipPath
       id="clipPath3846"
       clipPathUnits="userSpaceOnUse">
      <path
         inkscape:connector-curvature="0"
         id="path3844"
         d="m 664.937,139.708 c 0.366,-3.241 3.035,-3.485 6.276,-3.119 v 0 c 3.241,0.362 5.823,1.196 5.462,4.438 v 0 l -0.231,3.017 c -0.261,0.156 -0.53,0.32 -0.798,0.483 v 0 c -4.686,2.869 -8.991,6.008 -12.807,9.342 v 0 z" />
    </clipPath>
    <linearGradient
       id="linearGradient3862"
       spreadMethod="pad"
       gradientTransform="matrix(11.986692,1.6846198,1.6846198,-11.986692,664.11133,144.81396)"
       gradientUnits="userSpaceOnUse"
       y2="0"
       x2="1"
       y1="0"
       x1="0">
      <stop
         id="stop3852"
         offset="0"
         style="stop-opacity:1;stop-color:#f9a72b" />
      <stop
         id="stop3854"
         offset="0.31481586"
         style="stop-opacity:1;stop-color:#f8a62b" />
      <stop
         id="stop3856"
         offset="0.5"
         style="stop-opacity:1;stop-color:#f8a62b" />
      <stop
         id="stop3858"
         offset="0.70316016"
         style="stop-opacity:1;stop-color:#f8a62b" />
      <stop
         id="stop3860"
         offset="1"
         style="stop-opacity:1;stop-color:#f9a72b" />
    </linearGradient>
    <clipPath
       id="clipPath3872"
       clipPathUnits="userSpaceOnUse">
      <path
         inkscape:connector-curvature="0"
         id="path3870"
         d="m 690.417,130.376 c 0,-3.657 2.961,-4.517 6.618,-4.517 v 0 c 3.654,0 6.619,0.86 6.619,4.517 v 0 l 0.24,6.643 c -0.152,-0.067 -0.303,-0.13 -0.455,-0.192 v 0 l -0.201,-0.085 c -0.916,-0.382 -1.666,-0.679 -2.368,-0.949 v 0 l -1.185,-0.446 -0.012,-0.003 -0.012,-0.004 -0.623,-0.219 -0.647,-0.217 -0.011,-0.005 -0.018,-0.004 -0.957,-0.298 -0.391,-0.123 -0.391,0.132 -0.877,0.298 -0.655,0.221 -0.605,0.215 -0.013,0.004 -0.012,0.003 -1.184,0.45 c -0.697,0.26 -1.448,0.563 -2.368,0.945 v 0 c -0.273,0.114 -0.513,0.214 -0.731,0.306 v 0 z" />
    </clipPath>
    <linearGradient
       id="linearGradient3888"
       spreadMethod="pad"
       gradientTransform="matrix(13.714844,0,0,-13.714844,690.17871,131.45361)"
       gradientUnits="userSpaceOnUse"
       y2="0"
       x2="1"
       y1="0"
       x1="0">
      <stop
         id="stop3878"
         offset="0"
         style="stop-opacity:1;stop-color:#f9a72b" />
      <stop
         id="stop3880"
         offset="0.31481586"
         style="stop-opacity:1;stop-color:#f8a62b" />
      <stop
         id="stop3882"
         offset="0.5"
         style="stop-opacity:1;stop-color:#f8a62b" />
      <stop
         id="stop3884"
         offset="0.70316016"
         style="stop-opacity:1;stop-color:#f8a62b" />
      <stop
         id="stop3886"
         offset="1"
         style="stop-opacity:1;stop-color:#f9a72b" />
    </linearGradient>
    <clipPath
       id="clipPath3898"
       clipPathUnits="userSpaceOnUse">
      <path
         inkscape:connector-curvature="0"
         id="path3896"
         d="m 686.46,298.051 c -1.629,-0.059 -2.932,-1.403 -2.932,-3.049 v 0 c 0,-1.679 1.366,-3.049 3.049,-3.049 v 0 h 0.026 l 0.096,-4.181 c 0.495,0.231 1.02,0.483 1.583,0.761 v 0 c 2.666,1.313 4.904,2.568 6.839,3.845 v 0 l 0.035,0.018 1.377,0.846 0.684,0.425 0.667,-0.445 1.285,-0.844 c 1.946,-1.281 4.185,-2.537 6.838,-3.845 v 0 c 0.495,-0.246 0.991,-0.484 1.506,-0.727 v 0 l 0.099,4.147 h 0.027 c 1.685,0 3.05,1.37 3.05,3.049 v 0 c 0,1.646 -1.303,2.99 -2.933,3.049 v 0 z" />
    </clipPath>
    <linearGradient
       id="linearGradient3914"
       spreadMethod="pad"
       gradientTransform="matrix(27.160156,0,0,-27.160156,683.52832,292.91138)"
       gradientUnits="userSpaceOnUse"
       y2="0"
       x2="1"
       y1="0"
       x1="0">
      <stop
         id="stop3904"
         offset="0"
         style="stop-opacity:1;stop-color:#f9a72b" />
      <stop
         id="stop3906"
         offset="0.31481586"
         style="stop-opacity:1;stop-color:#f8a62b" />
      <stop
         id="stop3908"
         offset="0.5"
         style="stop-opacity:1;stop-color:#f8a62b" />
      <stop
         id="stop3910"
         offset="0.70316016"
         style="stop-opacity:1;stop-color:#f8a62b" />
      <stop
         id="stop3912"
         offset="1"
         style="stop-opacity:1;stop-color:#f9a72b" />
    </linearGradient>
    <clipPath
       id="clipPath3924"
       clipPathUnits="userSpaceOnUse">
      <path
         inkscape:connector-curvature="0"
         id="path3922"
         d="M 0,595.28 H 841.89 V 0 H 0 Z" />
    </clipPath>
    <clipPath
       id="clipPath4184"
       clipPathUnits="userSpaceOnUse">
      <path
         inkscape:connector-curvature="0"
         id="path4182"
         d="M 0,595.28 H 841.89 V 0 H 0 Z" />
    </clipPath>
  </defs>
  <sodipodi:namedview
     id="base"
     pagecolor="#ffffff"
     bordercolor="#666666"
     borderopacity="1.0"
     inkscape:pageopacity="0.0"
     inkscape:pageshadow="2"
     inkscape:zoom="0.5986532"
     inkscape:cx="396.85039"
     inkscape:cy="561.25984"
     inkscape:document-units="mm"
     inkscape:current-layer="layer1"
     showgrid="false"
     inkscape:window-width="1600"
     inkscape:window-height="851"
     inkscape:window-x="0"
     inkscape:window-y="0"
     inkscape:window-maximized="1" />
  <metadata
     id="metadata5">
    <rdf:RDF>
      <cc:Work
         rdf:about="">
        <dc:format>image/svg+xml</dc:format>
        <dc:type
           rdf:resource="http://purl.org/dc/dcmitype/StillImage" />
        <dc:title></dc:title>
      </cc:Work>
    </rdf:RDF>
  </metadata>
  <g
     inkscape:label="Layer 1"
     inkscape:groupmode="layer"
     id="layer1">
    <g
       transform="matrix(0.95308547,0,0,-0.95308547,-550.89584,341.16522)"
       inkscape:label="Manual Identidade UFRPE"
       id="g3740">
      <g
         id="g3742">
        <g
           clip-path="url(#clipPath3748)"
           id="g3744">
          <g
             transform="translate(640.0488,259.5425)"
             id="g3750">
            <path
               inkscape:connector-curvature="0"
               id="path3752"
               style="fill:#1b2e50;fill-opacity:1;fill-rule:nonzero;stroke:none"
               d="m 0,0 c 0.579,-2.817 1.11,-5.906 1.678,-9.721 1.043,-7.098 1.816,-14.085 2.372,-19.38 0.61,-5.847 1.189,-12.001 1.823,-19.377 l 0.801,-9.679 0.386,-4.84 0.183,-2.416 c 0.065,-0.812 0.141,-1.56 0.237,-2.296 0.449,-3.542 1.353,-7.093 2.649,-10.524 0.643,0.133 1.296,0.259 1.947,0.38 6.541,1.248 13.504,2.209 20.755,2.871 7.781,0.715 15.894,1.08 24.153,1.08 0.945,0 1.885,-0.004 2.827,-0.016 7.722,-0.077 15.293,-0.475 22.566,-1.18 4.719,-0.454 9.309,-1.037 13.738,-1.746 2.016,-0.321 3.993,-0.664 5.938,-1.038 0.629,-0.118 1.252,-0.24 1.871,-0.365 1.299,3.434 2.204,6.99 2.652,10.54 0.097,0.734 0.173,1.488 0.237,2.296 l 0.19,2.414 0.38,4.845 0.804,9.684 c 0.639,7.431 1.217,13.587 1.826,19.367 0.554,5.295 1.33,12.282 2.373,19.382 0.581,3.893 1.097,6.889 1.677,9.72 0.406,1.956 0.765,3.47 1.163,4.908 0.154,0.558 0.299,1.06 0.447,1.522 -4.229,0.882 -8.544,1.856 -12.858,2.902 -5.82,1.423 -11.118,2.84 -16.196,4.334 -6.04,1.781 -11.282,3.52 -16.027,5.32 -2.91,1.105 -5.493,2.18 -7.902,3.285 -2.159,0.993 -3.983,1.914 -5.667,2.86 -1.674,-0.944 -3.498,-1.864 -5.666,-2.863 -2.41,-1.108 -4.994,-2.184 -7.904,-3.29 C 38.691,17.176 33.451,15.434 27.433,13.656 22.315,12.155 17.018,10.735 11.231,9.321 6.669,8.21 2.455,7.251 -1.599,6.405 -1.455,5.946 -1.309,5.455 -1.16,4.909 -0.754,3.43 -0.386,1.87 0,0" />
          </g>
          <g
             transform="translate(691.3818,165.6836)"
             id="g3754">
            <path
               inkscape:connector-curvature="0"
               id="path3756"
               style="fill:#1b2e50;fill-opacity:1;fill-rule:nonzero;stroke:none"
               d="m 0,0 c 1.871,0.042 3.758,0.062 5.651,0.062 5.421,0 10.763,-0.172 15.966,-0.5 5.857,-0.374 11.539,-0.953 16.951,-1.726 0.784,-0.107 1.562,-0.227 2.332,-0.347 3.397,3.572 6.239,7.342 8.467,11.254 1.061,1.855 1.987,3.786 2.79,5.761 -0.624,0.13 -1.251,0.251 -1.883,0.369 -2.331,0.444 -4.714,0.848 -7.146,1.215 -4.581,0.698 -9.335,1.172 -14.209,1.599 -7.509,0.665 -15.315,0.91 -23.268,0.91 H 5.542 c -9.645,0 -19.076,-0.413 -28.011,-1.388 -5.673,-0.617 -11.144,-1.372 -16.347,-2.355 -0.656,-0.12 -1.308,-0.223 -1.956,-0.357 0.803,-1.979 1.732,-3.907 2.795,-5.766 2.223,-3.907 5.06,-7.665 8.454,-11.235 0.795,0.122 1.605,0.247 2.414,0.359 C -18.615,-0.94 -9.466,-0.206 0,0" />
          </g>
          <g
             transform="translate(728.8877,162.4785)"
             id="g3758">
            <path
               inkscape:connector-curvature="0"
               id="path3760"
               style="fill:#1b2e50;fill-opacity:1;fill-rule:nonzero;stroke:none"
               d="m 0,0 c -5.446,0.752 -11.161,1.31 -17.031,1.654 -4.855,0.294 -9.819,0.442 -14.823,0.442 -2.416,0 -4.817,-0.033 -7.202,-0.106 -8.49,-0.239 -16.758,-0.906 -24.496,-1.968 -0.829,-0.108 -1.649,-0.227 -2.466,-0.351 0.741,-0.745 1.495,-1.484 2.282,-2.21 4.384,-4.039 9.526,-7.796 15.285,-11.169 2.726,-1.589 5.564,-3.083 8.433,-4.43 3.024,-1.414 5.716,-2.527 8.203,-3.397 2.507,0.877 5.199,1.992 8.203,3.397 2.895,1.358 5.732,2.85 8.436,4.43 5.756,3.366 10.899,7.125 15.284,11.166 0.787,0.724 1.539,1.461 2.277,2.203 C 1.599,-0.222 0.803,-0.105 0,0" />
          </g>
        </g>
      </g>
      <g
         id="g3762">
        <g
           clip-path="url(#clipPath3768)"
           id="g3764">
          <g
             id="g3770">
            <g
               id="g3772">
              <path
                 inkscape:connector-curvature="0"
                 id="path3786"
                 style="fill:url(#linearGradient3784);stroke:none"
                 d="m 718.393,144.469 c -0.261,-0.16 -0.526,-0.323 -0.803,-0.492 v 0 l -0.226,-2.95 c -0.361,-3.242 2.244,-4.052 5.485,-4.412 v 0 c 3.242,-0.366 5.885,-0.148 6.25,3.093 v 0 l 2.083,14.053 c -3.82,-3.312 -8.117,-6.436 -12.789,-9.292" />
            </g>
          </g>
        </g>
      </g>
      <g
         id="g3788">
        <g
           clip-path="url(#clipPath3794)"
           id="g3790">
          <g
             id="g3796">
            <g
               id="g3798">
              <path
                 inkscape:connector-curvature="0"
                 id="path3812"
                 style="fill:url(#linearGradient3810);stroke:none"
                 d="m 727.487,286.494 c -0.167,-1.493 0.912,-2.841 2.401,-3.005 v 0 l 0.026,-0.004 -0.365,-4.12 0.273,-0.088 c 4.61,-1.479 9.389,-2.893 14.608,-4.325 v 0 c 1.038,-0.282 2.074,-0.563 3.121,-0.835 v 0 l 0.985,7.281 0.026,-0.005 c 1.491,-0.167 2.838,0.906 3.006,2.401 v 0 c 0.164,1.458 -0.856,2.78 -2.296,2.995 v 0 l -18.883,2.116 c -0.069,0.006 -0.137,0.008 -0.205,0.008 v 0 c -1.363,0 -2.542,-1.029 -2.697,-2.419" />
            </g>
          </g>
        </g>
      </g>
      <g
         id="g3814">
        <g
           clip-path="url(#clipPath3820)"
           id="g3816">
          <g
             id="g3822">
            <g
               id="g3824">
              <path
                 inkscape:connector-curvature="0"
                 id="path3838"
                 style="fill:url(#linearGradient3836);stroke:none"
                 d="m 663.645,288.905 -18.883,-2.116 c -1.436,-0.215 -2.456,-1.537 -2.293,-2.995 v 0 c 0.169,-1.495 1.513,-2.568 3.006,-2.401 v 0 l 0.022,0.005 0.991,-7.295 c 1.079,0.283 2.148,0.572 3.22,0.861 v 0 c 5.195,1.429 9.943,2.832 14.512,4.288 v 0 l 0.235,0.075 0.033,0.013 -0.364,4.145 0.025,0.004 c 1.49,0.164 2.566,1.512 2.398,3.005 v 0 c -0.152,1.39 -1.331,2.419 -2.698,2.419 v 0 c -0.067,0 -0.136,-0.002 -0.204,-0.008" />
            </g>
          </g>
        </g>
      </g>
      <g
         id="g3840">
        <g
           clip-path="url(#clipPath3846)"
           id="g3842">
          <g
             id="g3848">
            <g
               id="g3850">
              <path
                 inkscape:connector-curvature="0"
                 id="path3864"
                 style="fill:url(#linearGradient3862);stroke:none"
                 d="m 664.937,139.708 c 0.366,-3.241 3.035,-3.485 6.276,-3.119 v 0 c 3.241,0.362 5.823,1.196 5.462,4.438 v 0 l -0.231,3.017 c -0.261,0.156 -0.53,0.32 -0.798,0.483 v 0 c -4.686,2.869 -8.991,6.008 -12.807,9.342 v 0 z" />
            </g>
          </g>
        </g>
      </g>
      <g
         id="g3866">
        <g
           clip-path="url(#clipPath3872)"
           id="g3868">
          <g
             id="g3874">
            <g
               id="g3876">
              <path
                 inkscape:connector-curvature="0"
                 id="path3890"
                 style="fill:url(#linearGradient3888);stroke:none"
                 d="m 690.417,130.376 c 0,-3.657 2.961,-4.517 6.618,-4.517 v 0 c 3.654,0 6.619,0.86 6.619,4.517 v 0 l 0.24,6.643 c -0.152,-0.067 -0.303,-0.13 -0.455,-0.192 v 0 l -0.201,-0.085 c -0.916,-0.382 -1.666,-0.679 -2.368,-0.949 v 0 l -1.185,-0.446 -0.012,-0.003 -0.012,-0.004 -0.623,-0.219 -0.647,-0.217 -0.011,-0.005 -0.018,-0.004 -0.957,-0.298 -0.391,-0.123 -0.391,0.132 -0.877,0.298 -0.655,0.221 -0.605,0.215 -0.013,0.004 -0.012,0.003 -1.184,0.45 c -0.697,0.26 -1.448,0.563 -2.368,0.945 v 0 c -0.273,0.114 -0.513,0.214 -0.731,0.306 v 0 z" />
            </g>
          </g>
        </g>
      </g>
      <g
         id="g3892">
        <g
           clip-path="url(#clipPath3898)"
           id="g3894">
          <g
             id="g3900">
            <g
               id="g3902">
              <path
                 inkscape:connector-curvature="0"
                 id="path3916"
                 style="fill:url(#linearGradient3914);stroke:none"
                 d="m 686.46,298.051 c -1.629,-0.059 -2.932,-1.403 -2.932,-3.049 v 0 c 0,-1.679 1.366,-3.049 3.049,-3.049 v 0 h 0.026 l 0.096,-4.181 c 0.495,0.231 1.02,0.483 1.583,0.761 v 0 c 2.666,1.313 4.904,2.568 6.839,3.845 v 0 l 0.035,0.018 1.377,0.846 0.684,0.425 0.667,-0.445 1.285,-0.844 c 1.946,-1.281 4.185,-2.537 6.838,-3.845 v 0 c 0.495,-0.246 0.991,-0.484 1.506,-0.727 v 0 l 0.099,4.147 h 0.027 c 1.685,0 3.05,1.37 3.05,3.049 v 0 c 0,1.646 -1.303,2.99 -2.933,3.049 v 0 z" />
            </g>
          </g>
        </g>
      </g>
      <g
         id="g3918">
        <g
           clip-path="url(#clipPath3924)"
           id="g3920">
          <g
             transform="translate(666.9102,261.8052)"
             id="g3926">
            <path
               inkscape:connector-curvature="0"
               id="path3928"
               style="fill:#f3f9f8;fill-opacity:1;fill-rule:evenodd;stroke:none"
               d="m 0,0 1.284,-2.284 2.46,0.122 -1.668,-1.526 1.293,-2.283 -2.315,1.341 -1.662,-1.534 0.237,2.356 -2.317,1.334 2.46,0.116 z" />
          </g>
          <g
             transform="translate(673.7217,231.8809)"
             id="g3930">
            <path
               inkscape:connector-curvature="0"
               id="path3932"
               style="fill:#f3f9f8;fill-opacity:1;fill-rule:evenodd;stroke:none"
               d="m 0,0 1.285,-2.286 2.459,0.125 -1.668,-1.527 1.293,-2.282 -2.315,1.34 -1.661,-1.533 0.238,2.356 -2.32,1.333 2.46,0.116 z" />
          </g>
          <g
             transform="translate(673.5459,248.1655)"
             id="g3934">
            <path
               inkscape:connector-curvature="0"
               id="path3936"
               style="fill:#f3f9f8;fill-opacity:1;fill-rule:evenodd;stroke:none"
               d="m 0,0 1.284,-2.285 2.46,0.124 -1.668,-1.528 1.293,-2.283 -2.314,1.343 -1.662,-1.535 0.237,2.356 -2.32,1.334 2.462,0.114 z" />
          </g>
          <g
             transform="translate(655.4219,250.3198)"
             id="g3938">
            <path
               inkscape:connector-curvature="0"
               id="path3940"
               style="fill:#f3f9f8;fill-opacity:1;fill-rule:evenodd;stroke:none"
               d="m 0,0 1.284,-2.283 2.46,0.124 -1.669,-1.527 1.293,-2.285 -2.314,1.343 -1.66,-1.534 0.236,2.356 -2.319,1.333 2.462,0.117 z" />
          </g>
          <g
             transform="translate(683.0566,252.8247)"
             id="g3942">
            <path
               inkscape:connector-curvature="0"
               id="path3944"
               style="fill:#f3f9f8;fill-opacity:1;fill-rule:evenodd;stroke:none"
               d="m 0,0 1.285,-2.286 2.459,0.125 -1.667,-1.528 1.291,-2.282 -2.313,1.342 -1.66,-1.535 0.236,2.358 -2.32,1.332 2.46,0.114 z" />
          </g>
          <g
             transform="translate(727.7695,201.3867)"
             id="g3946">
            <path
               inkscape:connector-curvature="0"
               id="path3948"
               style="fill:#ffffff;fill-opacity:1;fill-rule:nonzero;stroke:none"
               d="M 0,0 C 0.962,0.231 2.844,0.587 2.844,0.587 1.956,2.84 -2.334,10.836 -2.028,18.967 -5.271,13.079 -4.932,5.964 -4.426,-0.591 c -2.484,-0.108 -5.098,-0.248 -7.825,-0.414 0.018,0.14 0.049,0.296 0.092,0.446 1.156,0.339 2.431,0.435 3.297,0.855 0.162,3.152 -0.242,9.96 0.494,15.181 0.63,4.41 2.297,9.604 2.813,11.136 l 0.005,0.016 c 1.14,4.819 0.833,7.367 0.833,7.367 0,0 -1.167,-0.483 -3.339,-1.236 -2.796,1.172 -7.911,3.861 -7.911,3.861 0,0 -1.408,0 -2.816,0.07 -1.62,0.565 -1.075,2.888 -1.075,2.888 0,0 0.456,1.182 1.79,0.762 0.209,-0.069 0.419,-0.144 0.623,-0.236 1.044,-0.44 1.855,-1.032 1.855,-1.032 l 7.749,-2.306 2.269,1.435 c 0,0 1.415,1.387 3.49,4.404 L 1.704,44.16 C 4.248,40.568 4.333,38.24 4.312,36.804 L 4.28,33.874 C 4.264,26.84 3.77,24.816 3.77,24.816 3.887,21.285 2.989,19.741 2.897,15.428 2.801,10.292 5.119,4.572 7.168,-0.23 4.937,-0.269 2.463,-0.327 -0.205,-0.419 c 0,0 0.065,0.381 0.205,0.419" />
          </g>
          <g
             transform="translate(729.4512,247.623)"
             id="g3950">
            <path
               inkscape:connector-curvature="0"
               id="path3952"
               style="fill:#ffffff;fill-opacity:1;fill-rule:nonzero;stroke:none"
               d="m 0,0 -4.025,-1.26 c -0.81,-0.2 -1.474,-0.058 -1.474,-0.058 -0.647,1.26 -0.606,2.141 -0.604,2.19 l -0.674,0.524 c 1.339,1.791 1.298,3.372 1.298,3.372 0,0 0.168,1.113 0.494,1.716 0.319,0.587 1.238,1.803 2.531,1.821 C 0.47,8.343 1.798,6.688 1.915,5.075 2.026,3.549 0.807,0.671 0,0" />
          </g>
          <g
             transform="translate(724.9092,254.4995)"
             id="g3954">
            <path
               inkscape:connector-curvature="0"
               id="path3956"
               style="fill:#ffffff;fill-opacity:1;fill-rule:nonzero;stroke:none"
               d="m 0,0 c -0.21,0.598 -0.466,1.292 0.551,1.467 1.016,0.175 5.095,0.14 6.135,-1.19 0,0 1.603,-1.788 -1.476,-6.269 C 2.753,-9.566 0.21,-0.597 0,0" />
          </g>
          <g
             transform="translate(729.7158,244.6094)"
             id="g3958">
            <path
               inkscape:connector-curvature="0"
               id="path3960"
               style="fill:#ffffff;fill-opacity:1;fill-rule:nonzero;stroke:none"
               d="m 0,0 -4.045,-0.623 c 0.309,2.449 -0.436,2.999 -0.436,2.999 l 4.344,0.85 C -0.137,3.226 -0.345,1.25 0,0" />
          </g>
          <g
             transform="translate(704.665,236.6079)"
             id="g3962">
            <path
               inkscape:connector-curvature="0"
               id="path3964"
               style="fill:#ffffff;fill-opacity:1;fill-rule:evenodd;stroke:none"
               d="m 0,0 c 0.625,-0.009 1.121,-0.524 1.109,-1.146 -0.01,-0.624 -0.525,-1.12 -1.148,-1.108 -0.622,0.01 -1.12,0.525 -1.109,1.149 C -1.137,-0.484 -0.621,0.01 0,0" />
          </g>
          <g
             transform="translate(700.5859,227.6128)"
             id="g3966">
            <path
               inkscape:connector-curvature="0"
               id="path3968"
               style="fill:#ffffff;fill-opacity:1;fill-rule:evenodd;stroke:none"
               d="m 0,0 c 0.625,-0.011 1.121,-0.525 1.108,-1.148 -0.01,-0.623 -0.524,-1.12 -1.148,-1.109 -0.618,0.01 -1.114,0.525 -1.104,1.15 C -1.132,-0.485 -0.618,0.011 0,0" />
          </g>
          <g
             transform="translate(693.7383,213.0947)"
             id="g3970">
            <path
               inkscape:connector-curvature="0"
               id="path3972"
               style="fill:#ffffff;fill-opacity:1;fill-rule:evenodd;stroke:none"
               d="M 0,0 C 0.625,-0.011 1.12,-0.526 1.11,-1.149 1.099,-1.772 0.585,-2.268 -0.039,-2.257 -0.662,-2.246 -1.157,-1.731 -1.146,-1.108 -1.136,-0.487 -0.622,0.012 0,0" />
          </g>
          <g
             transform="translate(692.0986,227.3027)"
             id="g3974">
            <path
               inkscape:connector-curvature="0"
               id="path3976"
               style="fill:#ffffff;fill-opacity:1;fill-rule:evenodd;stroke:none"
               d="M 0,0 C 0.623,-0.011 1.116,-0.522 1.104,-1.145 1.093,-1.77 0.583,-2.266 -0.04,-2.254 -0.661,-2.243 -1.159,-1.729 -1.148,-1.106 -1.138,-0.483 -0.622,0.011 0,0" />
          </g>
          <g
             transform="translate(683.375,213.1753)"
             id="g3978">
            <path
               inkscape:connector-curvature="0"
               id="path3980"
               style="fill:#ffffff;fill-opacity:1;fill-rule:evenodd;stroke:none"
               d="M 0,0 C 0.625,-0.009 1.114,-0.525 1.105,-1.149 1.095,-1.771 0.584,-2.264 -0.04,-2.253 -0.664,-2.243 -1.159,-1.73 -1.148,-1.107 -1.138,-0.485 -0.625,0.012 0,0" />
          </g>
          <g
             transform="translate(687.9541,199.5864)"
             id="g3982">
            <path
               inkscape:connector-curvature="0"
               id="path3984"
               style="fill:#ffffff;fill-opacity:1;fill-rule:evenodd;stroke:none"
               d="M 0,0 C 0.625,-0.009 1.121,-0.525 1.109,-1.145 1.098,-1.768 0.583,-2.264 -0.037,-2.254 -0.661,-2.244 -1.158,-1.73 -1.148,-1.105 -1.137,-0.484 -0.623,0.012 0,0" />
          </g>
          <g
             transform="translate(707.5771,203.5352)"
             id="g3986">
            <path
               inkscape:connector-curvature="0"
               id="path3988"
               style="fill:#ffffff;fill-opacity:1;fill-rule:evenodd;stroke:none"
               d="M 0,0 C 0.621,-0.012 1.118,-0.524 1.106,-1.146 1.098,-1.771 0.581,-2.267 -0.04,-2.255 -0.659,-2.246 -1.154,-1.729 -1.146,-1.107 -1.135,-0.484 -0.619,0.01 0,0" />
          </g>
          <g
             transform="translate(694.0742,203.9023)"
             id="g3990">
            <path
               inkscape:connector-curvature="0"
               id="path3992"
               style="fill:#ffffff;fill-opacity:1;fill-rule:evenodd;stroke:none"
               d="M 0,0 C 0.622,-0.009 1.118,-0.524 1.109,-1.148 1.097,-1.771 0.583,-2.267 -0.042,-2.256 -0.664,-2.245 -1.16,-1.73 -1.149,-1.106 -1.138,-0.484 -0.625,0.013 0,0" />
          </g>
          <g
             transform="translate(680.7402,203.4199)"
             id="g3994">
            <path
               inkscape:connector-curvature="0"
               id="path3996"
               style="fill:#ffffff;fill-opacity:1;fill-rule:evenodd;stroke:none"
               d="M 0,0 C 0.624,-0.012 1.119,-0.527 1.107,-1.15 1.099,-1.773 0.582,-2.271 -0.041,-2.259 -0.663,-2.25 -1.161,-1.732 -1.15,-1.11 -1.137,-0.487 -0.623,0.009 0,0" />
          </g>
          <g
             transform="translate(709.6992,230.1138)"
             id="g3998">
            <path
               inkscape:connector-curvature="0"
               id="path4000"
               style="fill:#ffffff;fill-opacity:1;fill-rule:evenodd;stroke:none"
               d="M 0,0 C 0.37,-0.006 0.661,-0.314 0.655,-0.683 0.65,-1.05 0.346,-1.348 -0.022,-1.34 -0.394,-1.333 -0.687,-1.026 -0.68,-0.658 -0.673,-0.29 -0.37,0.007 0,0" />
          </g>
          <g
             transform="translate(700.292,206.5317)"
             id="g4002">
            <path
               inkscape:connector-curvature="0"
               id="path4004"
               style="fill:#ffffff;fill-opacity:1;fill-rule:evenodd;stroke:none"
               d="M 0,0 C 0.371,-0.006 0.668,-0.309 0.662,-0.678 0.655,-1.05 0.349,-1.344 -0.024,-1.336 -0.389,-1.33 -0.684,-1.025 -0.678,-0.656 -0.673,-0.287 -0.364,0.006 0,0" />
          </g>
          <g
             transform="translate(698.9375,218.2739)"
             id="g4006">
            <path
               inkscape:connector-curvature="0"
               id="path4008"
               style="fill:#ffffff;fill-opacity:1;fill-rule:evenodd;stroke:none"
               d="M 0,0 C 0.371,-0.005 0.663,-0.312 0.655,-0.677 0.649,-1.051 0.345,-1.346 -0.023,-1.34 -0.394,-1.334 -0.687,-1.027 -0.679,-0.656 -0.674,-0.289 -0.369,0.009 0,0" />
          </g>
          <g
             transform="translate(685.7939,206.6724)"
             id="g4010">
            <path
               inkscape:connector-curvature="0"
               id="path4012"
               style="fill:#ffffff;fill-opacity:1;fill-rule:evenodd;stroke:none"
               d="M 0,0 C 0.371,-0.007 0.665,-0.309 0.657,-0.679 0.65,-1.051 0.346,-1.343 -0.023,-1.336 -0.394,-1.33 -0.687,-1.027 -0.68,-0.655 -0.672,-0.287 -0.369,0.005 0,0" />
          </g>
          <g
             transform="translate(687.1533,220.9175)"
             id="g4014">
            <path
               inkscape:connector-curvature="0"
               id="path4016"
               style="fill:#ffffff;fill-opacity:1;fill-rule:evenodd;stroke:none"
               d="M 0,0 C 0.368,-0.006 0.664,-0.312 0.659,-0.682 0.65,-1.05 0.344,-1.348 -0.025,-1.34 -0.394,-1.333 -0.69,-1.026 -0.683,-0.659 -0.678,-0.288 -0.369,0.007 0,0" />
          </g>
          <g
             transform="translate(698.3613,234.123)"
             id="g4018">
            <path
               inkscape:connector-curvature="0"
               id="path4020"
               style="fill:#ffffff;fill-opacity:1;fill-rule:evenodd;stroke:none"
               d="M 0,0 C 0.368,-0.006 0.664,-0.308 0.657,-0.679 0.651,-1.048 0.345,-1.343 -0.025,-1.335 -0.396,-1.329 -0.688,-1.025 -0.682,-0.656 -0.674,-0.285 -0.37,0.007 0,0" />
          </g>
          <g
             transform="translate(706.3174,221.6118)"
             id="g4022">
            <path
               inkscape:connector-curvature="0"
               id="path4024"
               style="fill:#ffffff;fill-opacity:1;fill-rule:evenodd;stroke:none"
               d="M 0,0 C 0.367,-0.005 0.663,-0.307 0.654,-0.679 0.648,-1.049 0.346,-1.341 -0.025,-1.335 -0.396,-1.328 -0.686,-1.024 -0.682,-0.656 -0.674,-0.284 -0.373,0.008 0,0" />
          </g>
          <g
             transform="translate(706.6865,211.3071)"
             id="g4026">
            <path
               inkscape:connector-curvature="0"
               id="path4028"
               style="fill:#ffffff;fill-opacity:1;fill-rule:evenodd;stroke:none"
               d="M 0,0 C 0.371,-0.007 0.669,-0.311 0.663,-0.68 0.656,-1.051 0.35,-1.343 -0.023,-1.337 -0.389,-1.331 -0.686,-1.028 -0.679,-0.657 -0.673,-0.286 -0.365,0.006 0,0" />
          </g>
          <g
             transform="translate(771.5713,152.7656)"
             id="g4030">
            <path
               inkscape:connector-curvature="0"
               id="path4032"
               style="fill:#1b2e50;fill-opacity:1;fill-rule:nonzero;stroke:none"
               d="m 0,0 -7.201,-17.362 c -0.892,2.319 -8.744,5.707 -17.478,8.206 -3.032,0.864 -3.598,2.372 -2.919,4.038 1.278,3.146 6.971,6.862 8.899,7.911 0.248,0.129 0.449,0.266 0.622,0.395 l 0.117,0.096 0.1,0.093 0.138,0.143 0.06,0.067 c 0.092,0.117 0.159,0.231 0.201,0.345 l 0.005,0.007 0.05,0.181 0.016,0.168 c 0,0.899 -1.309,1.528 -1.309,1.528 -0.261,0.08 -0.521,0.156 -0.781,0.241 -0.222,0.062 -0.441,0.13 -0.664,0.192 -0.142,0.042 -0.29,0.083 -0.436,0.131 -0.143,0.033 -0.29,0.08 -0.438,0.12 -0.491,0.139 -0.99,0.278 -1.49,0.412 h -0.005 c -3.513,0.954 -7.255,1.802 -11.181,2.536 -1.263,0.24 -2.548,0.467 -3.85,0.681 -0.576,0.096 -1.154,0.189 -1.738,0.277 -0.774,0.121 -1.554,0.24 -2.339,0.348 -5.412,0.773 -11.095,1.352 -16.951,1.725 -5.203,0.329 -10.545,0.5 -15.966,0.5 -1.894,0 -3.78,-0.019 -5.651,-0.061 -9.466,-0.206 -18.616,-0.939 -27.11,-2.143 -0.81,-0.112 -1.621,-0.234 -2.419,-0.356 -0.584,-0.093 -1.163,-0.185 -1.738,-0.277 -1.306,-0.214 -2.595,-0.44 -3.863,-0.681 -3.948,-0.738 -7.709,-1.591 -11.241,-2.549 h -0.003 c -0.505,-0.134 -1,-0.273 -1.496,-0.412 -0.142,-0.04 -0.29,-0.087 -0.432,-0.12 -0.148,-0.048 -0.294,-0.089 -0.437,-0.131 -0.222,-0.062 -0.441,-0.13 -0.66,-0.192 -0.264,-0.085 -0.523,-0.161 -0.784,-0.241 0,0 -1.31,-0.629 -1.31,-1.528 l 0.013,-0.168 0.055,-0.181 V 3.932 c 0.046,-0.114 0.113,-0.228 0.204,-0.345 l 0.058,-0.067 0.139,-0.143 0.103,-0.093 0.116,-0.096 c 0.168,-0.129 0.374,-0.266 0.622,-0.395 1.927,-1.049 7.621,-4.765 8.896,-7.911 0.681,-1.666 0.115,-3.174 -2.917,-4.038 -8.738,-2.499 -16.586,-5.887 -17.476,-8.206 L -149.07,0 c 0.831,2.159 7.86,5.3 15.876,7.731 l -5.622,13.559 h 0.004 c -0.433,1.083 1.238,1.89 1.238,1.89 3.716,1.201 7.693,2.288 11.884,3.25 1.075,0.243 2.163,0.483 3.262,0.71 0.484,0.104 0.971,0.201 1.457,0.297 0.651,0.134 1.306,0.261 1.965,0.382 5.203,0.983 10.675,1.785 16.348,2.402 8.934,0.974 18.366,1.477 28.011,1.482 h 0.109 c 7.953,0 15.759,-0.34 23.267,-1.003 4.875,-0.429 9.628,-0.996 14.209,-1.694 2.432,-0.367 4.816,-0.771 7.147,-1.215 0.634,-0.119 1.265,-0.241 1.891,-0.371 0.49,-0.097 0.977,-0.192 1.464,-0.297 1.096,-0.227 2.175,-0.467 3.242,-0.71 4.17,-0.957 8.125,-2.038 11.82,-3.233 0,0 1.672,-0.807 1.239,-1.89 L -15.877,7.731 C -7.861,5.3 -0.832,2.159 0,0" />
          </g>
          <g
             transform="translate(742.1006,181.6602)"
             id="g4034">
            <path
               inkscape:connector-curvature="0"
               id="path4036"
               style="fill:#ffffff;fill-opacity:1;fill-rule:nonzero;stroke:none"
               d="M 0,0 C 0.579,1.495 1.083,3.016 1.5,4.551 -1.033,3.536 -3.515,2.35 -5.932,1.037 -3.918,0.718 -1.942,0.374 0,0" />
          </g>
          <g
             transform="translate(711.8564,163.2803)"
             id="g4038">
            <path
               inkscape:connector-curvature="0"
               id="path4040"
               style="fill:#ffffff;fill-opacity:1;fill-rule:nonzero;stroke:none"
               d="m 0,0 h -0.005 c -2.3,-2 -4.417,-4.056 -6.321,-6.154 -4.364,-4.813 -7.622,-8.762 -9.456,-11.214 -0.116,-0.155 -0.228,-0.198 -0.333,-0.343 -0.359,-0.488 -0.718,-0.934 -1.081,-1.437 l -0.008,0.016 0.119,-0.035 c 0.161,-0.061 0.322,-0.117 0.481,-0.178 0.635,-0.245 1.255,-0.467 1.864,-0.678 0.261,0.088 0.522,0.186 0.786,0.28 l 0.141,0.054 c 0.254,0.093 0.512,0.186 0.768,0.284 1.034,0.391 2.105,0.823 3.216,1.299 0.306,0.128 0.614,0.265 0.928,0.403 0.189,0.083 0.381,0.168 0.573,0.254 0.177,0.078 0.355,0.158 0.535,0.242 0.359,0.164 0.721,0.33 1.089,0.502 2.77,1.305 5.482,2.73 8.065,4.238 0.913,0.535 1.814,1.081 2.695,1.638 0.222,0.139 0.444,0.279 0.664,0.422 0.823,0.524 1.628,1.057 2.417,1.602 0.261,0.181 0.526,0.362 0.783,0.544 0.32,0.226 0.64,0.454 0.954,0.684 0.714,0.515 1.415,1.037 2.098,1.568 0.203,0.157 0.408,0.315 0.608,0.474 0.12,0.093 0.236,0.184 0.351,0.276 0.552,0.443 1.093,0.887 1.626,1.334 0.28,0.237 0.554,0.473 0.83,0.712 0.273,0.235 0.544,0.474 0.81,0.713 0.271,0.239 0.534,0.481 0.798,0.723 0.292,0.269 0.584,0.541 0.866,0.814 l 0.17,-0.265 C 11.584,-0.476 5.921,0 0,0" />
          </g>
          <g
             transform="translate(689.832,164.4687)"
             id="g4042">
            <path
               inkscape:connector-curvature="0"
               id="path4044"
               style="fill:#ffffff;fill-opacity:1;fill-rule:nonzero;stroke:none"
               d="m 0,0 c -8.488,-0.239 -16.756,-0.906 -24.492,-1.968 0.346,-0.333 0.689,-0.668 1.045,-0.996 0.261,-0.24 0.527,-0.482 0.795,-0.721 0.753,-0.673 1.531,-1.34 2.329,-1.996 0.266,-0.219 0.532,-0.436 0.802,-0.652 l 0.078,-0.063 c 0.244,-0.196 0.492,-0.39 0.742,-0.584 0.161,-0.126 0.322,-0.25 0.486,-0.376 0.155,-0.12 0.311,-0.239 0.47,-0.358 0.383,-0.29 0.769,-0.579 1.161,-0.862 0.194,-0.143 0.392,-0.286 0.59,-0.429 0.81,-0.583 1.641,-1.155 2.489,-1.721 0.283,-0.19 0.572,-0.378 0.861,-0.565 2.082,2.134 6.403,6.332 12.645,11.291 z" />
          </g>
          <g
             transform="translate(699.8594,185.2803)"
             id="g4046">
            <path
               inkscape:connector-curvature="0"
               id="path4048"
               style="fill:#ffffff;fill-opacity:1;fill-rule:nonzero;stroke:none"
               d="m 0,0 c 7.723,0 15.293,-0.303 22.566,-1.007 l 0.008,0.084 c 1.087,0.49 2.185,1.016 3.304,1.485 l 0.127,0.075 c 5.386,2.256 11.137,4.277 17.217,5.881 l 0.027,0.013 c 0.559,0.151 1.123,0.298 1.69,0.437 0.086,0.682 0.159,1.382 0.22,2.134 L 45.325,11.1 C 38.097,10.27 19.307,7 -0.004,0 Z" />
          </g>
          <g
             transform="translate(672.8799,184.5605)"
             id="g4050">
            <path
               inkscape:connector-curvature="0"
               id="path4052"
               style="fill:#ffffff;fill-opacity:1;fill-rule:nonzero;stroke:none"
               d="m 0,0 0.023,0.003 c 11.65,4.478 28.021,9.648 47.53,12.745 l 0.075,0.01 c 5.043,0.798 10.295,1.457 15.726,1.929 l 0.226,0.019 c 2.945,0.257 5.941,0.454 8.985,0.589 l 0.109,1.398 c -2.322,0.031 -5.939,0.044 -10.536,-0.035 -2.237,-0.04 -4.708,-0.101 -7.374,-0.192 -1.36,-0.048 -2.771,-0.104 -4.227,-0.171 -2.478,-0.108 -5.093,-0.246 -7.819,-0.416 -19.157,-1.2 -43.789,-4.04 -65.784,-10.584 0.502,-2.757 1.286,-5.5 2.317,-8.165 6.54,1.247 13.5,2.208 20.749,2.87" />
          </g>
          <g
             transform="translate(741.0859,166.2319)"
             id="g4054">
            <path
               inkscape:connector-curvature="0"
               id="path4056"
               style="fill:#1b2e50;fill-opacity:1;fill-rule:nonzero;stroke:none"
               d="m 0,0 c 0.318,0.426 0.625,0.858 0.928,1.294 0.981,1.407 1.906,2.86 2.759,4.359 L 3.783,5.817 C 4.212,6.568 4.619,7.332 5.009,8.105 5.807,9.68 6.528,11.296 7.167,12.947 6.101,13.19 5.021,13.429 3.926,13.657 3.342,12.196 2.683,10.758 1.957,9.357 1.726,8.907 1.49,8.467 1.242,8.026 1.142,7.84 1.036,7.655 0.932,7.471 0.601,6.891 0.261,6.321 -0.093,5.754 -0.361,5.317 -0.639,4.884 -0.92,4.456 -1.445,3.663 -1.986,2.881 -2.554,2.113 -2.919,1.613 -3.293,1.117 -3.675,0.63 c -1.07,-1.364 -2.2,-2.692 -3.384,-3.967 1.302,-0.214 2.587,-0.442 3.85,-0.681 C -2.083,-2.726 -1.013,-1.385 0,0" />
          </g>
          <g
             transform="translate(654.6475,169.71)"
             id="g4058">
            <path
               inkscape:connector-curvature="0"
               id="path4060"
               style="fill:#1b2e50;fill-opacity:1;fill-rule:nonzero;stroke:none"
               d="m 0,0 c -0.894,1.296 -1.732,2.628 -2.511,3.997 -0.314,0.551 -0.616,1.105 -0.906,1.662 -0.773,1.48 -1.47,2.991 -2.087,4.536 -1.1,-0.226 -2.187,-0.466 -3.263,-0.71 0.588,-1.532 1.251,-3.036 1.987,-4.502 0.214,-0.439 0.44,-0.877 0.676,-1.313 0.235,-0.449 0.478,-0.895 0.73,-1.336 0.906,-1.604 1.894,-3.157 2.951,-4.66 0.319,-0.462 0.648,-0.916 0.987,-1.37 0.962,-1.301 1.978,-2.565 3.04,-3.787 1.269,0.241 2.558,0.466 3.864,0.681 C 3.486,-4.661 1.651,-2.391 0,0" />
          </g>
          <g
             transform="translate(732.1631,160.9512)"
             id="g4062">
            <path
               inkscape:connector-curvature="0"
               id="path4064"
               style="fill:#1b2e50;fill-opacity:1;fill-rule:nonzero;stroke:none"
               d="m 0,0 c -0.71,-0.715 -1.437,-1.412 -2.176,-2.092 -3.674,-3.38 -7.675,-6.403 -11.887,-9.112 -1.201,-0.772 -2.418,-1.516 -3.649,-2.238 -2.779,-1.624 -5.635,-3.12 -8.553,-4.492 -0.626,-0.295 -1.252,-0.58 -1.881,-0.861 -2.276,-1.017 -4.593,-1.957 -6.942,-2.76 -2.373,0.811 -4.716,1.765 -7.017,2.797 -0.604,0.269 -1.208,0.542 -1.804,0.824 -2.916,1.372 -5.771,2.871 -8.551,4.492 -1.271,0.744 -2.532,1.516 -3.774,2.315 -4.165,2.687 -8.125,5.689 -11.766,9.04 -0.785,0.721 -1.549,1.461 -2.301,2.221 l -0.004,0.004 c -0.26,0.26 -0.517,0.52 -0.769,0.786 -1.33,-0.21 -2.645,-0.437 -3.934,-0.672 1.511,-1.685 3.108,-3.288 4.762,-4.817 0.217,-0.202 0.441,-0.408 0.664,-0.603 4.248,-3.844 8.877,-7.211 13.726,-10.181 0.567,-0.348 1.138,-0.691 1.709,-1.028 2.868,-1.68 5.806,-3.229 8.813,-4.644 1.096,-0.515 2.201,-1.015 3.317,-1.495 0.412,-0.181 0.832,-0.356 1.247,-0.529 0.769,-0.32 1.541,-0.633 2.332,-0.933 l 1.183,-0.444 0.605,-0.214 0.642,-0.218 0.878,-0.299 0.958,0.299 0.646,0.218 0.604,0.214 1.186,0.444 c 0.785,0.3 1.561,0.613 2.33,0.933 0.39,0.164 0.786,0.328 1.172,0.496 1.141,0.487 2.272,1 3.392,1.528 3.006,1.415 5.946,2.964 8.809,4.649 0.539,0.313 1.071,0.634 1.6,0.961 4.842,2.956 9.47,6.311 13.714,10.133 0.265,0.235 0.53,0.473 0.79,0.717 1.646,1.525 3.233,3.124 4.741,4.8 C 3.526,0.475 2.217,0.7 0.891,0.91 0.601,0.604 0.302,0.302 0,0" />
          </g>
          <g
             transform="translate(633.792,265.4287)"
             id="g4066">
            <path
               inkscape:connector-curvature="0"
               id="path4068"
               style="fill:#1b2e50;fill-opacity:1;fill-rule:nonzero;stroke:none"
               d="m 0,0 c 0.247,-0.722 0.47,-1.465 0.676,-2.221 0.412,-1.507 0.761,-3.056 1.074,-4.618 0.639,-3.12 1.147,-6.29 1.617,-9.469 0.921,-6.361 1.647,-12.769 2.311,-19.186 0.658,-6.42 1.233,-12.852 1.775,-19.289 l 0.786,-9.658 0.368,-4.832 0.181,-2.424 c 0.067,-0.841 0.151,-1.683 0.257,-2.524 0.424,-3.359 1.188,-6.684 2.275,-9.901 0.114,-0.334 0.232,-0.672 0.354,-1.008 1.065,0.244 2.153,0.484 3.249,0.714 -1.28,3.432 -2.175,7.005 -2.633,10.637 -0.104,0.785 -0.181,1.575 -0.244,2.368 l -0.185,2.413 -0.385,4.843 -0.798,9.675 c -0.558,6.449 -1.151,12.894 -1.823,19.339 -0.676,6.446 -1.418,12.887 -2.367,19.32 -0.475,3.217 -1,6.429 -1.66,9.641 C 4.497,-4.577 4.131,-2.972 3.691,-1.364 3.468,-0.557 3.229,0.244 2.943,1.055 2.876,1.239 2.809,1.429 2.742,1.613 6.294,2.34 9.821,3.121 13.34,3.947 c 1.267,0.294 2.537,0.601 3.805,0.907 4.694,1.151 9.376,2.377 14.028,3.708 0.701,0.202 1.403,0.408 2.103,0.613 5.351,1.575 10.666,3.297 15.919,5.287 1.268,0.483 2.532,0.983 3.792,1.498 1.348,0.56 2.687,1.139 4.023,1.748 2.116,0.978 4.216,2.024 6.273,3.221 2.058,-1.193 4.158,-2.243 6.279,-3.217 1.301,-0.6 2.616,-1.168 3.938,-1.713 1.284,-0.533 2.578,-1.041 3.871,-1.533 5.254,-1.99 10.569,-3.703 15.918,-5.282 0.664,-0.197 1.331,-0.391 1.999,-0.58 4.687,-1.347 9.402,-2.578 14.135,-3.736 1.229,-0.299 2.461,-0.593 3.694,-0.878 3.566,-0.831 7.139,-1.613 10.742,-2.347 -0.072,-0.202 -0.156,-0.395 -0.222,-0.596 -0.283,-0.807 -0.522,-1.609 -0.744,-2.411 -0.446,-1.608 -0.807,-3.213 -1.138,-4.816 -0.659,-3.212 -1.185,-6.424 -1.663,-9.641 -0.948,-6.433 -1.693,-12.874 -2.372,-19.32 -0.672,-6.441 -1.265,-12.89 -1.818,-19.339 l -0.806,-9.675 -0.379,-4.843 -0.189,-2.413 c -0.063,-0.798 -0.142,-1.575 -0.244,-2.368 -0.458,-3.641 -1.351,-7.219 -2.639,-10.658 1.09,-0.225 2.17,-0.461 3.232,-0.709 0.126,0.34 0.244,0.684 0.361,1.029 1.087,3.216 1.848,6.542 2.272,9.9 0.054,0.421 0.099,0.841 0.142,1.261 0.043,0.412 0.084,0.868 0.115,1.259 l 0.18,2.426 0.372,4.83 0.783,9.661 c 0.537,6.438 1.117,12.866 1.775,19.286 0.66,6.417 1.386,12.828 2.31,19.19 0.461,3.178 0.979,6.348 1.608,9.473 0.319,1.558 0.668,3.107 1.079,4.619 0.415,1.503 0.874,2.998 1.524,4.257 l 0.908,1.785 -1.965,0.445 c -4.255,0.966 -8.516,2.033 -12.754,3.154 -1.095,0.289 -2.187,0.583 -3.277,0.882 -4.919,1.348 -9.815,2.784 -14.664,4.337 -0.39,0.126 -0.782,0.251 -1.171,0.378 -5.224,1.701 -10.406,3.536 -15.454,5.609 -1.822,0.752 -3.627,1.538 -5.403,2.365 -0.685,0.319 -1.361,0.643 -2.032,0.974 -2.419,1.192 -4.779,2.481 -6.973,3.922 l -1.284,0.848 -1.377,-0.848 C 59.76,24.455 57.396,23.166 54.978,21.974 54.28,21.628 53.579,21.294 52.869,20.971 51.119,20.151 49.339,19.379 47.545,18.64 42.494,16.565 37.308,14.73 32.089,13.03 31.664,12.892 31.237,12.757 30.812,12.623 25.996,11.086 21.133,9.663 16.25,8.323 15.125,8.017 14,7.714 12.869,7.416 8.671,6.303 4.442,5.25 0.223,4.296 L -1.813,3.83 -0.844,2.029 C -0.524,1.416 -0.253,0.715 0,0" />
          </g>
          <g
             transform="translate(649.5937,169.6299)"
             id="g4070">
            <path
               inkscape:connector-curvature="0"
               id="path4072"
               style="fill:#ffffff;fill-opacity:1;fill-rule:nonzero;stroke:none"
               d="m 0,0 -3.518,-0.775 0.607,-2.743 3.932,0.868 0.308,-1.398 -5.635,-1.244 -2.06,9.332 5.428,1.198 0.308,-1.398 -3.725,-0.822 0.532,-2.41 3.517,0.777 z" />
          </g>
          <g
             transform="translate(657.3525,166.7451)"
             id="g4074">
            <path
               inkscape:connector-curvature="0"
               id="path4076"
               style="fill:#ffffff;fill-opacity:1;fill-rule:nonzero;stroke:none"
               d="M 0,0 -1.335,1.694 C -1.869,2.349 -2.223,2.805 -2.598,3.299 L -2.626,3.295 C -2.753,2.711 -2.916,2.165 -3.165,1.372 l -0.606,-2.037 -1.969,-0.348 1.954,5.255 -3.515,4.174 1.983,0.35 1.361,-1.76 C -3.546,6.473 -3.241,6.052 -2.91,5.562 l 0.043,0.008 c 0.146,0.631 0.268,1.084 0.461,1.708 L -1.744,9.396 0.227,9.743 -1.715,4.665 1.996,0.35 Z" />
          </g>
          <g
             transform="translate(663.1494,169.5518)"
             id="g4078">
            <path
               inkscape:connector-curvature="0"
               id="path4080"
               style="fill:#ffffff;fill-opacity:1;fill-rule:nonzero;stroke:none"
               d="M 0,0 C 0.59,-0.257 1.483,-0.431 2.37,-0.32 3.468,-0.183 4.021,0.414 3.926,1.188 3.836,1.906 3.305,2.269 2.055,2.555 0.409,2.922 -0.693,3.63 -0.863,4.993 -1.057,6.556 0.092,7.884 2.16,8.142 3.188,8.27 3.961,8.136 4.485,7.945 L 4.25,6.501 C 3.875,6.641 3.181,6.824 2.294,6.715 1.197,6.579 0.804,5.944 0.874,5.381 0.966,4.65 1.556,4.379 2.884,4.045 4.607,3.631 5.499,2.899 5.669,1.533 5.859,0 4.869,-1.467 2.437,-1.769 1.423,-1.894 0.346,-1.745 -0.215,-1.484 Z" />
          </g>
          <g
             transform="translate(675.5811,173.2539)"
             id="g4082">
            <path
               inkscape:connector-curvature="0"
               id="path4084"
               style="fill:#ffffff;fill-opacity:1;fill-rule:nonzero;stroke:none"
               d="m 0,0 -3.586,-0.334 0.261,-2.794 4.009,0.373 0.132,-1.427 -5.744,-0.534 -0.886,9.515 5.534,0.514 0.132,-1.426 -3.798,-0.353 0.229,-2.456 3.586,0.333 z" />
          </g>
          <g
             transform="translate(685.6699,173.5518)"
             id="g4086">
            <path
               inkscape:connector-curvature="0"
               id="path4088"
               style="fill:#ffffff;fill-opacity:1;fill-rule:nonzero;stroke:none"
               d="M 0,0 C -0.124,1.227 -0.278,2.71 -0.336,4 L -0.378,3.996 C -0.625,2.818 -0.95,1.509 -1.308,0.281 L -2.479,-3.93 -3.81,-4.005 -5.312,0.002 c -0.434,1.196 -0.847,2.48 -1.167,3.655 L -6.508,3.656 c 0.027,-1.248 0.055,-2.766 0.056,-4.072 l 0.001,-3.849 -1.628,-0.09 0.106,9.575 2.294,0.13 1.459,-3.768 c 0.403,-1.099 0.763,-2.215 1.062,-3.264 l 0.043,10e-4 c 0.197,1.049 0.457,2.243 0.763,3.381 l 1.104,3.896 2.265,0.126 1.084,-9.511 -1.7,-0.095 z" />
          </g>
          <g
             transform="translate(690.9687,179.3721)"
             id="g4090">
            <path
               inkscape:connector-curvature="0"
               id="path4092"
               style="fill:#ffffff;fill-opacity:1;fill-rule:nonzero;stroke:none"
               d="M 0,0 0.256,-9.553 -1.488,-9.6 -1.743,-0.047 Z" />
          </g>
          <g
             transform="translate(693.1504,169.8838)"
             id="g4094">
            <path
               inkscape:connector-curvature="0"
               id="path4096"
               style="fill:#ffffff;fill-opacity:1;fill-rule:nonzero;stroke:none"
               d="M 0,0 -0.028,9.554 1.971,9.561 4.448,5.47 C 5.075,4.408 5.645,3.304 6.088,2.271 H 6.116 C 5.985,3.546 5.954,4.779 5.949,6.239 L 5.94,9.572 7.558,9.576 7.585,0.021 5.769,0.016 3.262,4.219 C 2.648,5.266 2.022,6.428 1.551,7.503 L 1.494,7.488 C 1.569,6.255 1.601,4.992 1.605,3.419 l 0.01,-3.416 z" />
          </g>
          <g
             transform="translate(708.1367,173.9531)"
             id="g4098">
            <path
               inkscape:connector-curvature="0"
               id="path4100"
               style="fill:#ffffff;fill-opacity:1;fill-rule:nonzero;stroke:none"
               d="M 0,0 -3.602,0.1 -3.679,-2.708 0.347,-2.817 0.307,-4.249 -5.462,-4.09 -5.197,5.462 0.359,5.31 0.319,3.878 -3.493,3.983 -3.562,1.517 0.039,1.417 Z" />
          </g>
          <g
             transform="translate(712.9121,171.3906)"
             id="g4102">
            <path
               inkscape:connector-curvature="0"
               id="path4104"
               style="fill:#ffffff;fill-opacity:1;fill-rule:nonzero;stroke:none"
               d="M 0,0 C 0.53,-0.361 1.375,-0.703 2.266,-0.762 3.369,-0.834 4.025,-0.352 4.077,0.427 4.126,1.147 3.673,1.604 2.499,2.122 0.951,2.793 0.002,3.694 0.093,5.066 0.196,6.637 1.575,7.725 3.655,7.588 4.688,7.52 5.424,7.243 5.901,6.956 L 5.398,5.582 C 5.058,5.79 4.409,6.102 3.519,6.161 2.415,6.234 1.91,5.685 1.873,5.119 1.823,4.383 2.354,4.008 3.594,3.429 5.208,2.696 5.944,1.808 5.854,0.437 5.753,-1.105 4.505,-2.358 2.058,-2.196 1.039,-2.129 0.01,-1.777 -0.491,-1.418 Z" />
          </g>
          <g
             transform="translate(725.8115,172.6973)"
             id="g4106">
            <path
               inkscape:connector-curvature="0"
               id="path4108"
               style="fill:#ffffff;fill-opacity:1;fill-rule:nonzero;stroke:none"
               d="M 0,0 -3.586,0.34 -3.852,-2.454 0.158,-2.835 0.021,-4.261 -5.724,-3.713 -4.816,5.802 0.718,5.273 0.581,3.847 -3.216,4.209 -3.45,1.753 0.135,1.411 Z" />
          </g>
          <g
             transform="translate(734.9219,167.7227)"
             id="g4110">
            <path
               inkscape:connector-curvature="0"
               id="path4112"
               style="fill:#ffffff;fill-opacity:1;fill-rule:nonzero;stroke:none"
               d="M 0,0 C -0.635,-0.145 -1.856,-0.299 -3.107,-0.134 -4.71,0.077 -5.88,0.646 -6.666,1.621 -7.404,2.533 -7.718,3.849 -7.529,5.282 -7.12,8.287 -4.745,9.92 -1.61,9.509 -0.443,9.355 0.438,8.995 0.848,8.729 L 0.284,7.386 c -0.488,0.306 -1.099,0.558 -2.096,0.69 -2.025,0.267 -3.602,-0.742 -3.892,-2.948 -0.283,-2.152 0.871,-3.606 2.839,-3.864 0.632,-0.083 1.094,-0.058 1.331,0.01 l 0.311,2.376 -1.672,0.222 0.179,1.363 3.346,-0.44 z" />
          </g>
          <g
             transform="translate(742.5205,170.2852)"
             id="g4114">
            <path
               inkscape:connector-curvature="0"
               id="path4116"
               style="fill:#ffffff;fill-opacity:1;fill-rule:nonzero;stroke:none"
               d="M 0,0 -3.549,0.609 -4.023,-2.155 -0.057,-2.839 -0.298,-4.25 -5.985,-3.272 -4.367,6.145 1.11,5.203 0.866,3.792 -2.892,4.437 -3.309,2.008 0.239,1.397 Z" />
          </g>
          <g
             transform="translate(744.0068,167.6211)"
             id="g4118">
            <path
               inkscape:connector-curvature="0"
               id="path4120"
               style="fill:#ffffff;fill-opacity:1;fill-rule:nonzero;stroke:none"
               d="M 0,0 C 0.473,-0.434 1.26,-0.891 2.134,-1.076 3.216,-1.307 3.936,-0.922 4.097,-0.16 4.247,0.547 3.865,1.063 2.776,1.745 1.341,2.63 0.53,3.656 0.816,5 1.143,6.542 2.663,7.422 4.703,6.988 5.716,6.773 6.403,6.396 6.835,6.043 L 6.142,4.756 C 5.833,5.009 5.237,5.412 4.363,5.597 3.281,5.826 2.703,5.354 2.585,4.8 2.433,4.078 2.901,3.631 4.047,2.88 5.541,1.925 6.145,0.941 5.857,-0.403 5.536,-1.916 4.122,-2.978 1.723,-2.468 c -0.999,0.213 -1.967,0.707 -2.412,1.136 z" />
          </g>
          <g
             transform="translate(686.4668,299.4326)"
             id="g4122">
            <path
               inkscape:connector-curvature="0"
               id="path4124"
               style="fill:#b71c2d;fill-opacity:1;fill-rule:nonzero;stroke:none"
               d="m 0,0 c 0,0 -8.784,7.75 4.718,17.266 12.109,8.535 12.146,11.073 12.146,11.073 0,0 1.089,-11.125 -3.34,-15.224 0,0 4.955,1.055 6.036,5.799 0,0 11.502,-10.244 1.722,-18.914 z" />
          </g>
          <g
             transform="translate(730.293,290.0327)"
             id="g4126">
            <path
               inkscape:connector-curvature="0"
               id="path4128"
               style="fill:#b71c2d;fill-opacity:1;fill-rule:nonzero;stroke:none"
               d="m 0,0 c 0,0 -7.28,8.022 6.106,15.387 12.005,6.604 12.3,8.934 12.3,8.934 0,0 -0.139,-10.339 -4.63,-13.652 0,0 4.661,0.461 6.142,4.712 0,0 9.521,-10.595 -0.356,-17.563 z" />
          </g>
          <g
             transform="translate(644.3525,287.8506)"
             id="g4130">
            <path
               inkscape:connector-curvature="0"
               id="path4132"
               style="fill:#b71c2d;fill-opacity:1;fill-rule:nonzero;stroke:none"
               d="m 0,0 c 0,0 -8.887,6.199 2.522,16.361 10.231,9.114 9.999,11.45 9.999,11.45 0,0 2.168,-10.109 -1.47,-14.339 0,0 4.441,1.488 4.935,5.962 0,0 11.645,-8.206 3.569,-17.201 z" />
          </g>
        </g>
      </g>
      <text
         id="text4136"
         style="font-variant:normal;font-weight:bold;font-stretch:normal;font-size:39.32229996px;font-family:'Akzidenz-Grotesk BQ';-inkscape-font-specification:AkzidenzGroteskBQ-Bold;writing-mode:lr-tb;fill:#1b2e50;fill-opacity:1;fill-rule:nonzero;stroke:none"
         transform="matrix(1,0,0,-1,630.2681,80.2373)">
        <tspan
           id="tspan4134"
           sodipodi:role="line"
           y="0"
           x="0 28.665956 53.242393 81.082581 108.13632">UFRPE</tspan>
      </text>
    </g>
  </g>
</svg>
